<?xml version="1.0" standalone="no"?><!DOCTYPE svg PUBLIC "-//W3C//DTD SVG 1.1//EN" "http://www.w3.org/Graphics/SVG/1.1/DTD/svg11.dtd"><svg t="1726886446385" class="icon" viewBox="0 0 1024 1024" version="1.1" xmlns="http://www.w3.org/2000/svg" p-id="1482" xmlns:xlink="http://www.w3.org/1999/xlink" width="200" height="200"><path d="M828.465335 900.361927h-81.522914l-26.171563-68.587544h-120.329025l-24.66745 68.587544h-79.717979l117.320799-300.822562h94.458285z m-136.272621-143.793184l-32.488836-87.238543-30.683902 86.93772z" fill="#d81e06" p-id="1483"></path><path d="M300.822562 572.766157v360.987074a90.246769 90.246769 0 0 0 90.246768 90.246769h541.480611a90.246769 90.246769 0 0 0 90.246769-90.246769v-360.987074a90.246769 90.246769 0 0 0-90.246769-90.246768H391.06933a90.246769 90.246769 0 0 0-90.246768 90.246768z m601.645123 360.987074H421.151586a30.082256 30.082256 0 0 1-30.082256-30.082256v-300.822561a30.082256 30.082256 0 0 1 30.082256-30.082257h481.316099a30.082256 30.082256 0 0 1 30.082256 30.082257v300.822561a30.082256 30.082256 0 0 1-30.082256 30.082256zM631.426557 318.871915l-180.493537 120.329025a30.082256 30.082256 0 0 1-46.92832-24.968273v-240.658049a30.082256 30.082256 0 0 1 46.92832-24.968273l180.493537 120.329025a30.082256 30.082256 0 0 1 0 49.936545z" fill="#d81e06" p-id="1484"></path><path d="M120.329025 572.766157a30.082256 30.082256 0 0 1-30.082256-30.082256v-421.151586a30.082256 30.082256 0 0 1 30.082256-30.082256h782.13866a30.082256 30.082256 0 0 1 30.082256 30.082256v270.740305h90.246769v-300.822561a90.246769 90.246769 0 0 0-90.246769-90.246769H90.246769a90.246769 90.246769 0 0 0-90.246769 90.246769v481.316098a90.246769 90.246769 0 0 0 90.246769 90.246769h120.329024v-90.246769z" fill="#d81e06" p-id="1485"></path></svg>